<svg xmlns="http://www.w3.org/2000/svg" width="400" height="400" viewBox="0 0 400 400" version="1.1"><path d="M 209.500 47.865 C 200.125 52.429, 197.614 56.645, 197.665 67.727 C 197.714 78.224, 199.979 82.111, 208.778 86.801 C 214.769 89.994, 218.032 93.844, 222.292 102.750 C 223.147 104.537, 226.609 110.868, 229.986 116.817 C 238.331 131.521, 240.815 133.176, 253.957 132.783 C 263.105 132.509, 263.435 132.418, 264.056 130 C 264.954 126.502, 263.484 123.396, 253.636 108 C 237.846 83.311, 239.172 87.177, 240.046 68.374 C 240.417 60.395, 240.361 60.166, 236.962 55.728 C 231.658 48.802, 228.096 46.799, 220.242 46.325 C 214.993 46.007, 212.614 46.348, 209.500 47.865 M 212.756 58.755 C 208.583 61.342, 206.600 66.257, 208.007 70.521 C 209.612 75.386, 213.703 78, 219.708 78 C 223.937 78, 225.045 77.549, 227.804 74.702 C 232.163 70.205, 232.194 65.429, 227.896 60.535 C 225.169 57.429, 224.229 57.003, 220.146 57.027 C 217.557 57.041, 214.285 57.807, 212.756 58.755 M 124.664 67.200 C 117.677 69.093, 111.234 77.747, 110.239 86.573 L 109.771 90.725 133.205 90.225 C 165.220 89.541, 166.142 89.691, 173.765 96.800 C 178.864 101.556, 180.909 104.570, 186.116 115 C 189.548 121.875, 192.614 127.725, 192.928 128 C 193.243 128.275, 195.017 131.425, 196.872 135 C 200.758 142.491, 202.654 144.793, 209.340 150.134 C 213.884 153.764, 214.593 154, 220.941 154 C 229.850 154, 234 152.554, 234 149.449 C 234 146.003, 232.376 142.811, 224.016 129.821 C 216.167 117.625, 206.704 102.222, 198.518 88.320 C 192.586 78.245, 187.392 71.338, 183.679 68.589 C 181.002 66.607, 179.520 66.491, 154.679 66.330 C 139.115 66.229, 126.944 66.582, 124.664 67.200 M 257.250 66.706 C 255.388 67.064, 255 67.794, 255 70.935 C 255 73.086, 255.796 75.763, 256.837 77.115 C 260.845 82.317, 277.456 111.821, 278.985 116.454 C 281.071 122.774, 279.326 127.211, 266.239 148.868 C 251.903 172.591, 248.002 180.240, 248.001 184.624 C 248 188.887, 250.388 195.316, 253.725 200.035 C 255.970 203.208, 257.120 203.961, 259.744 203.979 C 263.492 204.003, 266.268 200.722, 273.240 188.026 C 275.513 183.887, 282.560 171.950, 288.900 161.500 C 305.933 133.424, 308.478 128.009, 308.490 119.816 C 308.499 113.946, 308.176 112.788, 305.843 110.316 C 304.381 108.767, 299.314 100.562, 294.583 92.081 C 280.884 67.530, 279.178 65.925, 267 66.140 C 262.875 66.213, 258.488 66.467, 257.250 66.706 M 87.994 100.883 C 82.453 102.682, 78.858 105.262, 76.296 109.278 C 73.964 112.933, 73.595 114.575, 73.551 121.500 C 73.503 129.015, 73.702 129.781, 76.839 134.138 C 81.346 140.398, 86.244 142.513, 96.096 142.455 C 104.672 142.404, 107.948 140.934, 110.505 135.991 L 112.051 133 132.660 133 C 145.563 133, 154.735 132.560, 157.193 131.824 C 162.036 130.373, 165.214 126.715, 167.922 119.478 C 171.631 109.565, 173.832 110.410, 142.250 109.611 C 120.279 109.056, 114.084 108.604, 112.500 107.443 C 103.793 101.059, 102.722 100.578, 96.633 100.324 C 93.260 100.184, 89.372 100.435, 87.994 100.883 M 87.276 113.524 C 84.019 116.781, 83.803 117.368, 84.427 121.274 C 85.317 126.856, 87.401 129.852, 91.617 131.613 C 94.764 132.928, 95.483 132.880, 99.543 131.084 C 104.370 128.949, 106 126.269, 106 120.468 C 106 115.328, 100.333 110, 94.867 110 C 91.547 110, 90.153 110.647, 87.276 113.524 M 319.685 127.939 C 314.902 128.901, 311.321 131.528, 307.576 136.822 C 305.068 140.368, 304.562 142.209, 304.017 149.771 L 303.381 158.586 295.553 171.043 C 283.409 190.368, 281.533 194.370, 281.533 200.948 C 281.533 205.738, 282.134 207.596, 285.517 213.276 C 290.500 221.644, 292.950 222.145, 297.497 215.729 C 302.664 208.437, 315.937 185.841, 319.800 177.761 C 323.499 170.024, 323.502 170.021, 327.500 170.001 C 332.720 169.974, 341.169 165.991, 343.697 162.366 C 353.857 147.790, 345.855 129.537, 328.500 127.701 C 325.750 127.411, 321.783 127.518, 319.685 127.939 M 322.500 137.731 C 321.400 138.005, 319.262 139.609, 317.750 141.295 C 313.973 145.505, 313.829 152.920, 317.455 156.545 C 320.193 159.284, 326.227 159.863, 331.800 157.920 C 337.435 155.956, 338.623 145.737, 333.735 141.285 C 329.449 137.383, 327.002 136.608, 322.500 137.731 M 81.590 145.744 C 76.863 146.426, 74.311 148.758, 69.436 156.851 C 66.902 161.058, 62.161 168.775, 58.902 174 C 51.879 185.258, 47.274 194.331, 46.433 198.566 C 46.098 200.252, 46.306 203.402, 46.895 205.566 C 48.190 210.323, 55.592 221, 57.594 221 C 60.412 221, 66.090 214.357, 70.842 205.500 C 81.745 185.177, 88.150 174.377, 90.561 172.250 C 93.092 170.017, 93.353 170, 125.306 169.984 C 156.800 169.967, 157.586 169.918, 161.458 167.725 C 166.503 164.868, 170.669 158.939, 172.494 152.022 C 173.282 149.036, 173.830 146.522, 173.713 146.435 C 173.180 146.040, 84.170 145.372, 81.590 145.744 M 335.673 187.250 C 333.047 191.238, 328.265 199.900, 325.047 206.500 C 317.659 221.649, 314.196 226.408, 308.768 228.869 C 300.070 232.813, 297.565 233.017, 270.563 231.983 C 253.592 231.333, 243.480 231.332, 241.075 231.980 C 234.362 233.787, 227.779 242.278, 226.399 250.908 L 225.744 255 274.237 255 C 321.083 255, 322.816 254.933, 325.252 253.016 C 327.818 250.998, 347.865 218.510, 352.126 209.465 C 355.401 202.515, 355.227 194.770, 351.661 188.685 C 348.749 183.715, 344.654 180, 342.089 180 C 341.157 180, 338.384 183.134, 335.673 187.250 M 104.250 183.335 C 101.377 186.542, 96.215 195.580, 87.019 213.500 C 78.440 230.220, 75.556 234, 71.378 234 C 66.648 234, 61.176 238.177, 57.323 244.728 C 53.707 250.876, 53.786 258.556, 57.526 264.252 C 63.184 272.871, 68.464 276.014, 77.218 275.978 C 86.118 275.941, 92.295 271.905, 96.978 263.066 C 97.687 261.728, 98.598 256.103, 99.002 250.566 C 99.790 239.766, 99.727 239.929, 108.727 225.494 C 119.356 208.448, 121.047 203.113, 118.547 194.513 C 116.721 188.233, 113.169 183.603, 109.085 182.180 C 106.629 181.323, 105.894 181.499, 104.250 183.335 M 137.352 198.250 C 134.867 201.049, 132.290 205.302, 117.510 231 C 111.025 242.275, 104.261 253.975, 102.479 257 C 96.644 266.905, 94.196 272.490, 93.106 278.384 C 92.078 283.947, 92.150 284.361, 94.851 288.344 C 96.401 290.630, 100.956 298.125, 104.974 305 C 122.218 334.507, 123.496 335.648, 138.043 334.497 L 147 333.788 147 330.914 C 147 327.165, 144.454 320.739, 140.498 314.500 C 124.573 289.387, 123.093 286.579, 122.315 280.010 C 121.674 274.598, 122.897 271.970, 135.779 251.101 C 150.613 227.068, 151.317 225.518, 151.814 215.787 C 152.253 207.198, 150.766 203.505, 144.868 198.542 C 141.156 195.419, 139.907 195.370, 137.352 198.250 M 70.443 245.772 C 65.526 249.901, 64.497 258.588, 68.455 262.545 C 70.403 264.494, 71.935 265, 75.889 265 C 82.790 265, 85.552 263.724, 86.877 259.922 C 88.973 253.909, 88.332 250.498, 84.465 247.104 C 80.315 243.460, 73.919 242.853, 70.443 245.772 M 167.200 248.200 C 164.863 250.537, 166.097 253.743, 174.750 267.816 C 183.751 282.454, 192.181 296.743, 201.112 312.500 C 208.785 326.037, 213.389 331.601, 218.546 333.571 C 222.363 335.029, 226.119 335.177, 247.714 334.726 C 275.213 334.152, 278.750 333.505, 282.696 328.332 C 285.004 325.306, 289 314.610, 289 311.457 C 289 310.330, 285.480 310.195, 268.750 310.685 C 241.837 311.472, 228.392 309.669, 223.516 304.620 C 220.532 301.530, 217.886 296.632, 214.591 288.098 C 212.594 282.927, 209.444 276.177, 207.591 273.098 C 205.739 270.019, 202.870 264.800, 201.217 261.500 C 197.563 254.206, 194.128 250.369, 189.533 248.449 C 185.197 246.638, 168.944 246.456, 167.200 248.200 M 301.500 259.868 C 296.586 261.154, 294.267 262.798, 293.596 265.474 L 292.962 268 267.885 268 C 239.068 268, 239.219 267.962, 233.377 276.756 C 230.518 281.059, 229.941 282.781, 230.193 286.256 L 230.500 290.500 254 291.117 C 266.925 291.456, 280.045 291.793, 283.155 291.867 C 288.071 291.983, 289.367 292.465, 293.063 295.552 C 298.582 300.164, 303.121 302, 309 302 C 315.070 302, 319.553 300.107, 324.220 295.574 C 328.841 291.087, 330.427 285.662, 329.634 277.058 C 328.979 269.963, 325.998 265.088, 320.255 261.723 C 316.849 259.727, 306.100 258.664, 301.500 259.868 M 138 271.982 C 138 274.907, 139.108 277.762, 142.171 282.732 C 153.602 301.282, 161.642 314.770, 162.722 317.212 C 163.612 319.222, 163.641 320.731, 162.835 323.044 C 161.242 327.612, 162.290 340.108, 164.593 344.003 C 165.642 345.778, 168.457 348.641, 170.848 350.365 C 174.681 353.128, 175.986 353.500, 181.848 353.500 C 193.475 353.500, 201.335 347.899, 204.096 337.645 C 204.952 334.465, 204.855 332.248, 203.645 327.346 C 201.927 320.384, 198.530 315.833, 192.905 312.956 C 187.762 310.326, 184.110 305.750, 177.278 293.377 C 163.420 268.278, 163.145 268.042, 147.750 268.016 L 138 268 138 271.982 M 302.110 271.396 C 298.988 273.126, 297.080 276.682, 297.035 280.850 C 297.009 283.376, 297.866 285.066, 300.522 287.722 C 303.869 291.069, 304.319 291.221, 309.573 290.786 C 317.116 290.160, 318.500 288.576, 318.500 280.569 C 318.500 272.109, 316.705 269.986, 309.595 270.035 C 306.793 270.055, 303.425 270.667, 302.110 271.396 M 175.385 323.351 C 173.007 326.071, 172 329.044, 172 333.345 C 172 337.102, 172.488 338.232, 175.029 340.371 C 179.083 343.783, 183.912 344.614, 187.849 342.578 C 191.403 340.740, 192.541 338.964, 193.526 333.715 C 194.407 329.017, 192.694 324.637, 189.385 323.130 C 186.048 321.609, 176.780 321.755, 175.385 323.351" stroke="none" fill="#d0a73f" fill-rule="evenodd"/><path d="M -0 200.002 L -0 400.005 200.250 399.752 L 400.500 399.500 400.752 199.750 L 401.005 0 200.502 0 L 0 0 -0 200.002 M 0.490 200.500 C 0.490 310.500, 0.607 355.352, 0.750 300.170 C 0.893 244.989, 0.893 154.989, 0.750 100.170 C 0.607 45.352, 0.490 90.500, 0.490 200.500 M 209.500 47.865 C 200.125 52.429, 197.614 56.645, 197.665 67.727 C 197.714 78.224, 199.979 82.111, 208.778 86.801 C 214.769 89.994, 218.032 93.844, 222.292 102.750 C 223.147 104.537, 226.609 110.868, 229.986 116.817 C 238.331 131.521, 240.815 133.176, 253.957 132.783 C 263.105 132.509, 263.435 132.418, 264.056 130 C 264.954 126.502, 263.484 123.396, 253.636 108 C 237.846 83.311, 239.172 87.177, 240.046 68.374 C 240.417 60.395, 240.361 60.166, 236.962 55.728 C 231.658 48.802, 228.096 46.799, 220.242 46.325 C 214.993 46.007, 212.614 46.348, 209.500 47.865 M 212.756 58.755 C 208.583 61.342, 206.600 66.257, 208.007 70.521 C 209.612 75.386, 213.703 78, 219.708 78 C 223.937 78, 225.045 77.549, 227.804 74.702 C 232.163 70.205, 232.194 65.429, 227.896 60.535 C 225.169 57.429, 224.229 57.003, 220.146 57.027 C 217.557 57.041, 214.285 57.807, 212.756 58.755 M 124.664 67.200 C 117.677 69.093, 111.234 77.747, 110.239 86.573 L 109.771 90.725 133.205 90.225 C 165.220 89.541, 166.142 89.691, 173.765 96.800 C 178.864 101.556, 180.909 104.570, 186.116 115 C 189.548 121.875, 192.614 127.725, 192.928 128 C 193.243 128.275, 195.017 131.425, 196.872 135 C 200.758 142.491, 202.654 144.793, 209.340 150.134 C 213.884 153.764, 214.593 154, 220.941 154 C 229.850 154, 234 152.554, 234 149.449 C 234 146.003, 232.376 142.811, 224.016 129.821 C 216.167 117.625, 206.704 102.222, 198.518 88.320 C 192.586 78.245, 187.392 71.338, 183.679 68.589 C 181.002 66.607, 179.520 66.491, 154.679 66.330 C 139.115 66.229, 126.944 66.582, 124.664 67.200 M 257.250 66.706 C 255.388 67.064, 255 67.794, 255 70.935 C 255 73.086, 255.796 75.763, 256.837 77.115 C 260.845 82.317, 277.456 111.821, 278.985 116.454 C 281.071 122.774, 279.326 127.211, 266.239 148.868 C 251.903 172.591, 248.002 180.240, 248.001 184.624 C 248 188.887, 250.388 195.316, 253.725 200.035 C 255.970 203.208, 257.120 203.961, 259.744 203.979 C 263.492 204.003, 266.268 200.722, 273.240 188.026 C 275.513 183.887, 282.560 171.950, 288.900 161.500 C 305.933 133.424, 308.478 128.009, 308.490 119.816 C 308.499 113.946, 308.176 112.788, 305.843 110.316 C 304.381 108.767, 299.314 100.562, 294.583 92.081 C 280.884 67.530, 279.178 65.925, 267 66.140 C 262.875 66.213, 258.488 66.467, 257.250 66.706 M 87.994 100.883 C 82.453 102.682, 78.858 105.262, 76.296 109.278 C 73.964 112.933, 73.595 114.575, 73.551 121.500 C 73.503 129.015, 73.702 129.781, 76.839 134.138 C 81.346 140.398, 86.244 142.513, 96.096 142.455 C 104.672 142.404, 107.948 140.934, 110.505 135.991 L 112.051 133 132.660 133 C 145.563 133, 154.735 132.560, 157.193 131.824 C 162.036 130.373, 165.214 126.715, 167.922 119.478 C 171.631 109.565, 173.832 110.410, 142.250 109.611 C 120.279 109.056, 114.084 108.604, 112.500 107.443 C 103.793 101.059, 102.722 100.578, 96.633 100.324 C 93.260 100.184, 89.372 100.435, 87.994 100.883 M 87.276 113.524 C 84.019 116.781, 83.803 117.368, 84.427 121.274 C 85.317 126.856, 87.401 129.852, 91.617 131.613 C 94.764 132.928, 95.483 132.880, 99.543 131.084 C 104.370 128.949, 106 126.269, 106 120.468 C 106 115.328, 100.333 110, 94.867 110 C 91.547 110, 90.153 110.647, 87.276 113.524 M 319.685 127.939 C 314.902 128.901, 311.321 131.528, 307.576 136.822 C 305.068 140.368, 304.562 142.209, 304.017 149.771 L 303.381 158.586 295.553 171.043 C 283.409 190.368, 281.533 194.370, 281.533 200.948 C 281.533 205.738, 282.134 207.596, 285.517 213.276 C 290.500 221.644, 292.950 222.145, 297.497 215.729 C 302.664 208.437, 315.937 185.841, 319.800 177.761 C 323.499 170.024, 323.502 170.021, 327.500 170.001 C 332.720 169.974, 341.169 165.991, 343.697 162.366 C 353.857 147.790, 345.855 129.537, 328.500 127.701 C 325.750 127.411, 321.783 127.518, 319.685 127.939 M 322.500 137.731 C 321.400 138.005, 319.262 139.609, 317.750 141.295 C 313.973 145.505, 313.829 152.920, 317.455 156.545 C 320.193 159.284, 326.227 159.863, 331.800 157.920 C 337.435 155.956, 338.623 145.737, 333.735 141.285 C 329.449 137.383, 327.002 136.608, 322.500 137.731 M 81.590 145.744 C 76.863 146.426, 74.311 148.758, 69.436 156.851 C 66.902 161.058, 62.161 168.775, 58.902 174 C 51.879 185.258, 47.274 194.331, 46.433 198.566 C 46.098 200.252, 46.306 203.402, 46.895 205.566 C 48.190 210.323, 55.592 221, 57.594 221 C 60.412 221, 66.090 214.357, 70.842 205.500 C 81.745 185.177, 88.150 174.377, 90.561 172.250 C 93.092 170.017, 93.353 170, 125.306 169.984 C 156.800 169.967, 157.586 169.918, 161.458 167.725 C 166.503 164.868, 170.669 158.939, 172.494 152.022 C 173.282 149.036, 173.830 146.522, 173.713 146.435 C 173.180 146.040, 84.170 145.372, 81.590 145.744 M 335.673 187.250 C 333.047 191.238, 328.265 199.900, 325.047 206.500 C 317.659 221.649, 314.196 226.408, 308.768 228.869 C 300.070 232.813, 297.565 233.017, 270.563 231.983 C 253.592 231.333, 243.480 231.332, 241.075 231.980 C 234.362 233.787, 227.779 242.278, 226.399 250.908 L 225.744 255 274.237 255 C 321.083 255, 322.816 254.933, 325.252 253.016 C 327.818 250.998, 347.865 218.510, 352.126 209.465 C 355.401 202.515, 355.227 194.770, 351.661 188.685 C 348.749 183.715, 344.654 180, 342.089 180 C 341.157 180, 338.384 183.134, 335.673 187.250 M 104.250 183.335 C 101.377 186.542, 96.215 195.580, 87.019 213.500 C 78.440 230.220, 75.556 234, 71.378 234 C 66.648 234, 61.176 238.177, 57.323 244.728 C 53.707 250.876, 53.786 258.556, 57.526 264.252 C 63.184 272.871, 68.464 276.014, 77.218 275.978 C 86.118 275.941, 92.295 271.905, 96.978 263.066 C 97.687 261.728, 98.598 256.103, 99.002 250.566 C 99.790 239.766, 99.727 239.929, 108.727 225.494 C 119.356 208.448, 121.047 203.113, 118.547 194.513 C 116.721 188.233, 113.169 183.603, 109.085 182.180 C 106.629 181.323, 105.894 181.499, 104.250 183.335 M 137.352 198.250 C 134.867 201.049, 132.290 205.302, 117.510 231 C 111.025 242.275, 104.261 253.975, 102.479 257 C 96.644 266.905, 94.196 272.490, 93.106 278.384 C 92.078 283.947, 92.150 284.361, 94.851 288.344 C 96.401 290.630, 100.956 298.125, 104.974 305 C 122.218 334.507, 123.496 335.648, 138.043 334.497 L 147 333.788 147 330.914 C 147 327.165, 144.454 320.739, 140.498 314.500 C 124.573 289.387, 123.093 286.579, 122.315 280.010 C 121.674 274.598, 122.897 271.970, 135.779 251.101 C 150.613 227.068, 151.317 225.518, 151.814 215.787 C 152.253 207.198, 150.766 203.505, 144.868 198.542 C 141.156 195.419, 139.907 195.370, 137.352 198.250 M 70.443 245.772 C 65.526 249.901, 64.497 258.588, 68.455 262.545 C 70.403 264.494, 71.935 265, 75.889 265 C 82.790 265, 85.552 263.724, 86.877 259.922 C 88.973 253.909, 88.332 250.498, 84.465 247.104 C 80.315 243.460, 73.919 242.853, 70.443 245.772 M 167.200 248.200 C 164.863 250.537, 166.097 253.743, 174.750 267.816 C 183.751 282.454, 192.181 296.743, 201.112 312.500 C 208.785 326.037, 213.389 331.601, 218.546 333.571 C 222.363 335.029, 226.119 335.177, 247.714 334.726 C 275.213 334.152, 278.750 333.505, 282.696 328.332 C 285.004 325.306, 289 314.610, 289 311.457 C 289 310.330, 285.480 310.195, 268.750 310.685 C 241.837 311.472, 228.392 309.669, 223.516 304.620 C 220.532 301.530, 217.886 296.632, 214.591 288.098 C 212.594 282.927, 209.444 276.177, 207.591 273.098 C 205.739 270.019, 202.870 264.800, 201.217 261.500 C 197.563 254.206, 194.128 250.369, 189.533 248.449 C 185.197 246.638, 168.944 246.456, 167.200 248.200 M 301.500 259.868 C 296.586 261.154, 294.267 262.798, 293.596 265.474 L 292.962 268 267.885 268 C 239.068 268, 239.219 267.962, 233.377 276.756 C 230.518 281.059, 229.941 282.781, 230.193 286.256 L 230.500 290.500 254 291.117 C 266.925 291.456, 280.045 291.793, 283.155 291.867 C 288.071 291.983, 289.367 292.465, 293.063 295.552 C 298.582 300.164, 303.121 302, 309 302 C 315.070 302, 319.553 300.107, 324.220 295.574 C 328.841 291.087, 330.427 285.662, 329.634 277.058 C 328.979 269.963, 325.998 265.088, 320.255 261.723 C 316.849 259.727, 306.100 258.664, 301.500 259.868 M 138 271.982 C 138 274.907, 139.108 277.762, 142.171 282.732 C 153.602 301.282, 161.642 314.770, 162.722 317.212 C 163.612 319.222, 163.641 320.731, 162.835 323.044 C 161.242 327.612, 162.290 340.108, 164.593 344.003 C 165.642 345.778, 168.457 348.641, 170.848 350.365 C 174.681 353.128, 175.986 353.500, 181.848 353.500 C 193.475 353.500, 201.335 347.899, 204.096 337.645 C 204.952 334.465, 204.855 332.248, 203.645 327.346 C 201.927 320.384, 198.530 315.833, 192.905 312.956 C 187.762 310.326, 184.110 305.750, 177.278 293.377 C 163.420 268.278, 163.145 268.042, 147.750 268.016 L 138 268 138 271.982 M 302.110 271.396 C 298.988 273.126, 297.080 276.682, 297.035 280.850 C 297.009 283.376, 297.866 285.066, 300.522 287.722 C 303.869 291.069, 304.319 291.221, 309.573 290.786 C 317.116 290.160, 318.500 288.576, 318.500 280.569 C 318.500 272.109, 316.705 269.986, 309.595 270.035 C 306.793 270.055, 303.425 270.667, 302.110 271.396 M 175.385 323.351 C 173.007 326.071, 172 329.044, 172 333.345 C 172 337.102, 172.488 338.232, 175.029 340.371 C 179.083 343.783, 183.912 344.614, 187.849 342.578 C 191.403 340.740, 192.541 338.964, 193.526 333.715 C 194.407 329.017, 192.694 324.637, 189.385 323.130 C 186.048 321.609, 176.780 321.755, 175.385 323.351" stroke="none" fill="#fbfbfa" fill-rule="evenodd"/></svg>